<?xml version="1.0" standalone="no"?>
<!DOCTYPE svg PUBLIC "-//W3C//DTD SVG 1.1//EN" "http://www.w3.org/Graphics/SVG/1.1/DTD/svg11.dtd">
<svg xmlns="http://www.w3.org/2000/svg" xmlns:xlink="http://www.w3.org/1999/xlink" version="1.0" id="Layer_1" x="0px" y="0px" viewBox="0 0 1280 1024" style="enable-background:new 0 0 1280 1024;" xml:space="preserve" width="1280" height="1024">
<style type="text/css">
	.st0{stroke:#000000;stroke-width:2;stroke-miterlimit:10;}
	.st1{fill-rule:evenodd;clip-rule:evenodd;fill:#999999;}
</style>
<g>
	<path d="M1055.65,355.89L953.36,458.54c-2.76,2.75-6.3,4.37-10.05,4.51l-205.61,7.29c-5.22,0.21-10.3,2.26-14.36,5.95   L515.47,662.59c-3.42,3.07-7.71,4.71-12.1,4.68l-276.71-3.51l98.24-74.8c3.01-2.31,6.6-3.54,10.25-3.54h116.13   c4.67,0,9.14-1.9,12.62-5.33l202.27-199.49c3.82-3.81,8.73-6.01,13.87-6.26l375.58-18.43L1055.65,355.89z"/>
	<path class="st0" d="M226.67,663.75l98.24-74.8c3.01-2.31,6.6-3.54,10.25-3.54H451.3c4.67,0,9.14-1.9,12.62-5.33l202.27-199.49   c3.82-3.81,8.73-6.01,13.87-6.26l375.58-18.43L953.35,458.56c-2.76,2.75-6.3,4.37-10.05,4.51l-205.61,7.29   c-5.22,0.21-10.3,2.26-14.36,5.95L515.45,662.6c-3.42,3.07-7.71,4.71-12.1,4.68l-276.71-3.51L226.67,663.75z"/>
</g>
<g>
	<path class="st1" d="M423.51,459.71l-0.07,68.8c-0.01,9.39-3.79,18.32-10.51,25.02c-6.72,6.63-15.84,10.35-25.36,10.36   c-9.52,0.01-18.56-3.7-25.27-10.32c-6.71-6.68-10.53-15.6-10.52-25l0.07-68.8l9.11-0.01l-0.07,68.8   c-0.01,7.03,2.86,13.65,7.86,18.65c5,4.93,11.78,7.69,18.83,7.69c7.12-0.01,13.84-2.78,18.92-7.72c5.01-5.01,7.82-11.63,7.83-18.66   l0.07-68.8L423.51,459.71z"/>
	<path class="st1" d="M299.29,535.05l0,0.07l0,0.61c-0.01,8.52-4.13,15.68-10.91,20.76c-6.31,4.8-14.6,7.38-22.55,7.52l-0.07,0   l-0.07,0l-0.62,0c-7.06,0.01-13.91-1.47-20.27-4.58c-6.44-3.24-11.91-7.96-16.43-13.57l-1.71-2.03l7.13-5.62l1.71,2.09   c3.69,4.53,8.14,8.44,13.42,11.07c5.07,2.5,10.55,3.64,16.16,3.64l0.62,0c6.03-0.07,12.33-2.04,17.2-5.62   c4.46-3.38,7.2-8.05,7.28-13.66l0-0.34c-0.13-6.35-3.07-11.15-7.93-15.06c-5.2-4.19-12.12-7.02-18.49-9.24   c-6.78-2.36-13.9-5.46-19.65-9.78c-6.78-5.06-11.5-11.82-10.6-20.47c0.62-6.42,4.26-11.63,9.54-15.28   c5.69-3.79,12.95-5.69,19.8-5.69c6.23-0.01,12.19,1.14,17.88,3.77c5,2.36,9.31,5.67,13.21,9.52l1.92,1.89l-6.45,6.36l-1.92-1.89   c-3.15-3.11-6.64-5.87-10.68-7.76c-4.45-2.02-9.11-2.9-13.97-2.89c-5,0-10.48,1.29-14.6,4.14c-3.09,2.1-5.28,4.94-5.69,8.66   c-0.49,5.41,3,9.46,7.04,12.5c5,3.78,11.43,6.41,17.26,8.5c7.4,2.63,15.07,5.8,21.16,10.73   C294.99,518.97,299.02,526.06,299.29,535.05L299.29,535.05z"/>
	<path class="st1" d="M485.05,521.84l-0.04,41.97l-9.11,0.01l0.11-104.15l40.14-0.04c8.36-0.01,16.3,3.3,22.26,9.1   c5.89,5.81,9.23,13.71,9.23,21.96c-0.01,8.25-3.37,16.09-9.27,21.97c-5.97,5.82-13.92,9.14-22.27,9.14L485.05,521.84z    M485.11,468.65l-0.05,44.2l31.03-0.03c5.96-0.01,11.58-2.38,15.83-6.5c4.18-4.19,6.59-9.74,6.59-15.62   c0.01-5.88-2.39-11.42-6.56-15.61c-4.24-4.12-9.86-6.48-15.82-6.47L485.11,468.65z"/>
	<path class="st1" d="M609.2,521.73l-0.04,41.97l-9.11,0.01l0.11-104.15l40.14-0.04c8.36-0.01,16.3,3.3,22.26,9.1   c5.89,5.81,9.23,13.71,9.23,21.96c-0.01,8.25-3.37,16.09-9.27,21.97c-5.97,5.82-13.92,9.14-22.27,9.14L609.2,521.73z    M609.26,468.54l-0.05,44.2l31.03-0.03c5.96-0.01,11.58-2.38,15.83-6.5c4.18-4.19,6.59-9.74,6.59-15.62   c0.01-5.88-2.39-11.42-6.56-15.61c-4.24-4.12-9.86-6.48-15.82-6.47L609.26,468.54z"/>
	<polygon class="st1" points="733.32,554.6 786.76,554.55 786.75,563.54 724.2,563.59 724.31,459.44 733.42,459.44  "/>
	<polygon class="st1" points="997.88,468.19 997.84,501.71 1052.58,501.66 1052.57,510.72 997.83,510.77 997.79,554.36    1055.54,554.31 1055.53,563.29 988.67,563.35 988.78,459.21 1055.64,459.15 1055.63,468.14  "/>
	<polygon class="st1" points="887.8,511.2 929.43,459.26 936.28,459.25 936.18,563.4 927.07,563.41 927.15,477.51 887.78,526.41    848.44,477.58 848.35,563.48 839.24,563.49 839.35,459.34 846.27,459.33  "/>
</g>
</svg>