<svg xmlns="http://www.w3.org/2000/svg" xmlns:xlink="http://www.w3.org/1999/xlink" width="378" zoomAndPan="magnify" viewBox="0 0 283.5 283.500005" height="378" preserveAspectRatio="xMidYMid meet" version="1.0"><defs><clipPath id="ffc23bff87"><rect x="0" width="283" y="0" height="202"/></clipPath></defs><g transform="matrix(1, 0, 0, 1, 0, 49)"><g clip-path="url(#ffc23bff87)"><path stroke-linecap="butt" transform="matrix(0.237675, 0, 0, 0.237469, 0.036345, 0.241087)" fill-opacity="1" fill="#000000" fill-rule="evenodd" stroke-linejoin="miter" d="M 365.137684 331.084618 L 365.137684 411.17745 C 365.137684 422.116397 360.798769 432.49606 353.090621 440.293144 C 345.382474 448.007981 334.913198 452.334211 323.983735 452.334211 C 313.037836 452.334211 302.667173 448.007981 294.94259 440.293144 C 287.234442 432.49606 282.829786 422.116397 282.829786 411.17745 L 282.829786 331.084618 L 293.282626 331.084618 L 293.282626 411.17745 C 293.282626 419.352874 296.586118 427.06771 302.338467 432.890849 C 308.074381 438.63174 315.864705 441.855851 323.983735 441.855851 C 332.152071 441.855851 339.876654 438.63174 345.694744 432.890849 C 351.430658 427.06771 354.651973 419.352874 354.651973 411.17745 L 354.651973 331.084618 Z M 365.137684 331.084618 " stroke="#000000" stroke-width="1.5" stroke-opacity="1" stroke-miterlimit="10"/><path stroke-linecap="butt" transform="matrix(0.237675, 0, 0, 0.237469, 0.036345, 0.241087)" fill-opacity="1" fill="#000000" fill-rule="evenodd" stroke-linejoin="miter" d="M 222.545167 418.661993 L 222.545167 419.451571 C 222.545167 429.354197 217.828241 437.694116 210.037917 443.599503 C 202.806392 449.192348 193.273928 452.186165 184.152346 452.334211 L 183.297711 452.334211 C 175.195117 452.334211 167.322616 450.607009 159.99248 446.988109 C 152.596602 443.204714 146.301889 437.694116 141.124775 431.163647 L 139.152541 428.811362 L 147.337312 422.280893 L 149.29311 424.715425 C 153.549849 429.995729 158.661222 434.552253 164.725841 437.611868 C 170.543932 440.523438 176.838645 441.8723 183.297711 441.8723 L 184.004428 441.8723 C 190.923683 441.790053 198.155207 439.503566 203.743203 435.341831 C 208.854577 431.41039 212.010151 425.98204 212.092327 419.451571 L 212.092327 419.056782 C 211.927974 411.654487 208.542306 406.078092 202.95431 401.521568 C 196.971867 396.636053 189.033625 393.346144 181.719924 390.747116 C 173.9296 387.983593 165.744829 384.364693 159.137845 379.331132 C 151.347521 373.425746 145.923877 365.562863 146.942865 355.495742 C 147.666017 348.027649 151.824144 341.957767 157.888763 337.713785 C 164.413571 333.305307 172.762695 331.101068 180.635195 331.101068 C 187.784544 331.101068 194.638057 332.433481 201.162864 335.509546 C 206.898778 338.25662 211.862233 342.122263 216.33263 346.596539 L 218.534958 348.800778 L 211.139081 356.203073 L 208.936753 353.998834 C 205.320991 350.379934 201.310782 347.155823 196.676032 344.951584 C 191.564659 342.58285 186.206756 341.562978 180.61876 341.562978 C 174.882846 341.562978 168.588133 343.059887 163.854771 346.366245 C 160.321185 348.817227 157.806587 352.107136 157.329964 356.433366 C 156.7876 362.733542 160.797809 367.454561 165.432558 370.991213 C 171.168472 375.399691 178.56435 378.459306 185.25351 380.893839 C 193.766987 383.969904 202.576298 387.671051 209.577729 393.411942 C 217.598147 399.925962 222.232897 408.183633 222.545167 418.661993 Z M 222.545167 418.661993 " stroke="#000000" stroke-width="1.5" stroke-opacity="1" stroke-miterlimit="10"/><path stroke-linecap="butt" transform="matrix(0.237675, 0, 0, 0.237469, 0.036345, 0.241087)" fill-opacity="1" fill="#000000" fill-rule="evenodd" stroke-linejoin="miter" d="M 435.875143 403.462614 L 435.875143 452.334211 L 425.405867 452.334211 L 425.405867 331.084618 L 471.506837 331.084618 C 481.105042 331.084618 490.226624 334.950261 497.080137 341.711024 C 503.851474 348.471787 507.69733 357.683532 507.69733 367.273616 C 507.69733 376.88015 503.835039 385.993198 497.080137 392.852658 C 490.243059 399.613421 481.105042 403.462614 471.506837 403.462614 Z M 435.875143 341.562978 L 435.875143 393.017153 L 471.506837 393.017153 C 478.343914 393.017153 484.802981 390.25363 489.68426 385.466812 C 494.483362 380.581298 497.228055 374.133076 497.228055 367.290066 C 497.228055 360.447055 494.483362 353.982384 489.68426 349.113319 C 484.802981 344.326501 478.343914 341.562978 471.506837 341.562978 Z M 435.875143 341.562978 " stroke="#000000" stroke-width="1.5" stroke-opacity="1" stroke-miterlimit="10"/><path stroke-linecap="butt" transform="matrix(0.237675, 0, 0, 0.237469, 0.036345, 0.241087)" fill-opacity="1" fill="#000000" fill-rule="evenodd" stroke-linejoin="miter" d="M 578.451224 403.462614 L 578.451224 452.334211 L 567.981949 452.334211 L 567.981949 331.084618 L 614.082918 331.084618 C 623.697559 331.084618 632.802705 334.950261 639.656219 341.711024 C 646.427555 348.471787 650.273411 357.683532 650.273411 367.273616 C 650.273411 376.88015 646.427555 385.993198 639.656219 392.852658 C 632.819141 399.613421 623.697559 403.462614 614.082918 403.462614 Z M 578.451224 341.562978 L 578.451224 393.017153 L 614.082918 393.017153 C 620.936431 393.017153 627.395497 390.25363 632.260341 385.466812 C 637.059444 380.581298 639.804136 374.133076 639.804136 367.290066 C 639.804136 360.447055 637.059444 353.982384 632.260341 349.113319 C 627.379062 344.326501 620.936431 341.562978 614.082918 341.562978 Z M 578.451224 341.562978 " stroke="#000000" stroke-width="1.5" stroke-opacity="1" stroke-miterlimit="10"/><path stroke-linecap="butt" transform="matrix(0.237675, 0, 0, 0.237469, 0.036345, 0.241087)" fill-opacity="1" fill="#000000" fill-rule="evenodd" stroke-linejoin="miter" d="M 721.027305 441.8723 L 782.396653 441.8723 L 782.396653 452.334211 L 710.55803 452.334211 L 710.55803 331.084618 L 721.027305 331.084618 Z M 721.027305 441.8723 " stroke="#000000" stroke-width="1.5" stroke-opacity="1" stroke-miterlimit="10"/><path stroke-linecap="butt" transform="matrix(0.237675, 0, 0, 0.237469, 0.036345, 0.241087)" fill-opacity="1" fill="#000000" fill-rule="evenodd" stroke-linejoin="miter" d="M 1024.751338 341.562978 L 1024.751338 380.581298 L 1087.616296 380.581298 L 1087.616296 391.125456 L 1024.751338 391.125456 L 1024.751338 441.8723 L 1091.067706 441.8723 L 1091.067706 452.334211 L 1014.282063 452.334211 L 1014.282063 331.084618 L 1091.067706 331.084618 L 1091.067706 341.562978 Z M 1024.751338 341.562978 " stroke="#000000" stroke-width="1.5" stroke-opacity="1" stroke-miterlimit="10"/><path stroke-linecap="butt" transform="matrix(0.237675, 0, 0, 0.237469, 0.036345, 0.241087)" fill-opacity="1" fill="#000000" fill-rule="evenodd" stroke-linejoin="miter" d="M 898.380446 391.520245 L 946.124943 331.084618 L 953.997444 331.084618 L 953.997444 452.334211 L 943.544604 452.334211 L 943.544604 352.33743 L 898.380446 409.219955 L 853.134111 352.33743 L 853.134111 452.334211 L 842.681271 452.334211 L 842.681271 331.084618 L 850.619513 331.084618 Z M 898.380446 391.520245 " stroke="#000000" stroke-width="1.5" stroke-opacity="1" stroke-miterlimit="10"/></g></g></svg>